<svg height="512pt" viewBox="0 0 512 512" width="512pt" xmlns="http://www.w3.org/2000/svg"><path d="m383.046875 356.164062h32.339844c53.273437 0 96.613281-43.339843 96.613281-96.613281 0-53.273437-43.339844-96.613281-96.613281-96.613281h-10.988281v-56.605469h-360.398438v164.699219c0 63.128906 32.636719 118.773438 81.921875 150.964844h-125.921875v15c0 41.355468 33.644531 75.003906 75.003906 75.003906h361.992188c41.359375 0 75.003906-33.648438 75.003906-75.003906v-15h-189.398438c25.421876-16.605469 46.164063-39.21875 60.445313-65.832032zm-8.648437-219.832031v26.605469h-300.398438v-26.605469zm-300.398438 134.699219v-78.09375h341.386719c36.730469 0 66.613281 29.882812 66.613281 66.613281s-29.882812 66.613281-66.613281 66.613281h-51.113281l-4.046876 8.625c-11.960937 25.46875-30.796874 47.042969-54.464843 62.382813-24.28125 15.738281-52.484375 24.058594-81.5625 24.058594-82.820313 0-150.199219-67.378907-150.199219-150.199219zm362.996094 210.96875h-361.992188c-19.558594 0-36.242187-12.542969-42.433594-30.003906h446.859376c-6.191407 17.460937-22.875 30.003906-42.433594 30.003906zm0 0"/><path d="m440.152344 259.550781c0-14.253906-11.597656-25.851562-25.851563-25.851562h-31.652343v51.703125h31.652343c14.253907 0 25.851563-11.597656 25.851563-25.851563zm0 0"/><path d="m186.039062 84.65625h30c0-16.484375-8.515624-25.402344-14.148437-31.304688-4.539063-4.753906-5.851563-6.316406-5.851563-10.585937 0-4.273437 1.3125-5.832031 5.851563-10.585937 5.632813-5.902344 14.148437-15.695313 14.148437-32.179688h-30c0 4.269531-1.308593 6.707031-5.847656 11.460938-5.636718 5.902343-14.152344 14.820312-14.152344 31.304687s8.519532 25.402344 14.152344 31.304687c4.539063 4.753907 5.847656 6.3125 5.847656 10.585938zm0 0"/><path d="m246.046875 84.65625h30c0-16.484375-8.519531-25.402344-14.152344-31.304688-4.539062-4.753906-5.847656-6.316406-5.847656-10.585937 0-4.273437 1.308594-5.832031 5.847656-10.585937 5.632813-5.902344 14.152344-15.695313 14.152344-32.179688h-30c0 4.269531-1.3125 6.707031-5.851563 11.460938-5.636718 5.902343-14.148437 14.820312-14.148437 31.304687s8.515625 25.402344 14.148437 31.304687c4.539063 4.753907 5.851563 6.3125 5.851563 10.585938zm0 0"/></svg>