<?xml version="1.0" encoding="iso-8859-1"?>
<!-- Generator: Adobe Illustrator 19.0.0, SVG Export Plug-In . SVG Version: 6.00 Build 0)  -->
<svg xmlns="http://www.w3.org/2000/svg" xmlns:xlink="http://www.w3.org/1999/xlink" version="1.1" id="Layer_1" x="0px" y="0px" viewBox="0 0 512 512" style="enable-background:new 0 0 512 512;" xml:space="preserve" width="512px" height="512px">
<g>
	<g>
		<path d="M501.585,394.69c-4.542,0-8.223,3.68-8.223,8.223c0,14.812-12.049,26.861-26.861,26.861s-26.861-12.049-26.861-26.861    c0-4.542-3.68-8.223-8.223-8.223s-8.223,3.68-8.223,8.223c0,14.812-12.049,26.861-26.861,26.861s-26.861-12.049-26.861-26.861    c0-4.542-3.68-8.223-8.223-8.223s-8.223,3.68-8.223,8.223c0,14.812-12.049,26.861-26.861,26.861s-26.861-12.049-26.861-26.861    c0-4.542-3.68-8.223-8.223-8.223s-8.223,3.68-8.223,8.223c0,14.812-12.049,26.861-26.861,26.861s-26.861-12.049-26.861-26.861    c0-4.542-3.68-8.223-8.223-8.223s-8.223,3.68-8.223,8.223c0,14.812-12.049,26.861-26.861,26.861    c-14.812,0-26.861-12.049-26.861-26.861c0-4.542-3.68-8.223-8.223-8.223s-8.223,3.68-8.223,8.223    c0,14.812-12.049,26.861-26.861,26.861s-26.861-12.049-26.861-26.861c0-4.542-3.68-8.223-8.223-8.223    c-4.542,0-8.223,3.68-8.223,8.223c0,14.812-12.049,26.861-26.861,26.861c-14.812,0-26.861-12.049-26.861-26.861    c0-4.542-3.68-8.223-8.223-8.223s-8.223,3.68-8.223,8.223c0,23.879,19.427,43.306,43.306,43.306    c14.414,0,27.207-7.08,35.084-17.944c7.876,10.864,20.67,17.944,35.083,17.944s27.207-7.08,35.083-17.944    c7.876,10.864,20.67,17.944,35.083,17.944c14.414,0,27.207-7.08,35.084-17.944c7.876,10.864,20.67,17.944,35.083,17.944    s27.207-7.08,35.083-17.944c7.876,10.864,20.67,17.944,35.083,17.944c14.414,0,27.207-7.08,35.084-17.944    c7.876,10.864,20.67,17.944,35.083,17.944s27.207-7.08,35.083-17.944c7.876,10.864,20.67,17.944,35.083,17.944    c23.879,0,43.306-19.427,43.306-43.306C509.807,398.37,506.127,394.69,501.585,394.69z" fill="#FFFFFF"/>
	</g>
</g>
<g>
	<g>
		<path d="M501.585,460.471c-4.542,0-8.223,3.68-8.223,8.223c0,14.812-12.049,26.861-26.861,26.861s-26.861-12.049-26.861-26.861    c0-4.542-3.68-8.223-8.223-8.223s-8.223,3.68-8.223,8.223c0,14.812-12.049,26.861-26.861,26.861s-26.861-12.049-26.861-26.861    c0-4.542-3.68-8.223-8.223-8.223s-8.223,3.68-8.223,8.223c0,14.812-12.049,26.861-26.861,26.861s-26.861-12.049-26.861-26.861    c0-4.542-3.68-8.223-8.223-8.223s-8.223,3.68-8.223,8.223c0,14.812-12.049,26.861-26.861,26.861s-26.861-12.049-26.861-26.861    c0-4.542-3.68-8.223-8.223-8.223s-8.223,3.68-8.223,8.223c0,14.812-12.049,26.861-26.861,26.861    c-14.812,0-26.861-12.049-26.861-26.861c0-4.542-3.68-8.223-8.223-8.223s-8.223,3.68-8.223,8.223    c0,14.812-12.049,26.861-26.861,26.861s-26.861-12.049-26.861-26.861c0-4.542-3.68-8.223-8.223-8.223    c-4.542,0-8.223,3.68-8.223,8.223c0,14.812-12.049,26.861-26.861,26.861c-14.812,0-26.861-12.049-26.861-26.861    c0-4.542-3.68-8.223-8.223-8.223s-8.223,3.68-8.223,8.223C2.193,492.573,21.62,512,45.499,512c14.414,0,27.207-7.08,35.084-17.944    C88.459,504.92,101.252,512,115.666,512s27.207-7.08,35.083-17.944C158.626,504.92,171.419,512,185.833,512    c14.414,0,27.207-7.08,35.084-17.944C228.793,504.92,241.586,512,256,512s27.207-7.08,35.083-17.944    C298.96,504.92,311.753,512,326.167,512c14.414,0,27.207-7.08,35.084-17.944C369.127,504.92,381.92,512,396.334,512    s27.207-7.08,35.083-17.944C439.294,504.92,452.087,512,466.501,512c23.879,0,43.306-19.427,43.306-43.306    C509.807,464.152,506.127,460.471,501.585,460.471z" fill="#FFFFFF"/>
	</g>
</g>
<g>
	<g>
		<path d="M334.938,184.188c-4.542,0-8.223,3.68-8.223,8.223v214.887c0,4.542,3.68,8.223,8.223,8.223    c4.542,0,8.223-3.68,8.223-8.223V192.411C343.161,187.869,339.48,184.188,334.938,184.188z" fill="#FFFFFF"/>
	</g>
</g>
<g>
	<g>
		<path d="M378.792,0c-48.061,0-87.161,39.099-87.161,87.161v48.788H123.889V87.161c0-19.648,15.984-35.632,35.632-35.632    c19.648,0,35.632,15.984,35.632,35.632c0,14.207,11.558,25.764,25.764,25.764c14.207,0,25.764-11.558,25.764-25.764    C246.681,39.099,207.581,0,159.52,0C111.459,0,72.36,39.099,72.36,87.161V280.12c0,4.542,3.68,8.223,8.223,8.223    c4.542,0,8.223-3.68,8.223-8.223V87.161c0-38.992,31.723-70.715,70.715-70.715c38.992,0,70.715,31.723,70.715,70.715    c0,5.139-4.18,9.319-9.319,9.319c-5.139,0-9.319-4.18-9.319-9.319c0-28.715-23.362-52.077-52.077-52.077    c-28.715,0-52.077,23.362-52.077,52.077v320.137c0,4.542,3.68,8.223,8.223,8.223s8.223-3.68,8.223-8.223V310.27h167.743v66.33    c0,4.542,3.68,8.223,8.223,8.223s8.223-3.68,8.223-8.223V87.161c0-38.992,31.723-70.715,70.715-70.715    c38.992,0,70.715,31.723,70.715,70.715c0,5.139-4.18,9.319-9.319,9.319c-5.139,0-9.319-4.18-9.319-9.319    c0-28.715-23.362-52.077-52.077-52.077s-52.077,23.362-52.077,52.077v70.167c0,4.542,3.68,8.223,8.223,8.223    c4.542,0,8.223-3.68,8.223-8.223V87.161c0-19.648,15.984-35.632,35.632-35.632c19.648,0,35.632,15.984,35.632,35.632    c0,14.207,11.558,25.764,25.764,25.764c14.207,0,25.764-11.558,25.764-25.764C465.953,39.099,426.853,0,378.792,0z     M291.632,293.824H123.889v-62.492h167.743V293.824z M291.632,214.887H123.889v-62.493h167.743V214.887z" fill="#FFFFFF"/>
	</g>
</g>
<g>
	<g>
		<path d="M80.582,306.981c-4.542,0-8.223,3.68-8.223,8.223V376.6c0,4.542,3.68,8.223,8.223,8.223c4.542,0,8.223-3.68,8.223-8.223    v-61.396C88.805,310.661,85.125,306.981,80.582,306.981z" fill="#FFFFFF"/>
	</g>
</g>
<g>
</g>
<g>
</g>
<g>
</g>
<g>
</g>
<g>
</g>
<g>
</g>
<g>
</g>
<g>
</g>
<g>
</g>
<g>
</g>
<g>
</g>
<g>
</g>
<g>
</g>
<g>
</g>
<g>
</g>
</svg>
