<?xml version="1.0"?>
<svg xmlns="http://www.w3.org/2000/svg" height="512px" viewBox="0 -16 512 512" width="512px"><path d="m256 120c-57.898438 0-105 47.101562-105 105s47.101562 105 105 105 105-47.101562 105-105-47.101562-105-105-105zm15 105c0 8.269531-6.730469 15-15 15s-15-6.730469-15-15 6.730469-15 15-15 15 6.730469 15 15zm-15 75c-41.355469 0-75-33.644531-75-75 0-36.21875 25.808594-66.523438 60-73.492188v31.070313c-17.460938 6.195313-30 22.867187-30 42.421875 0 24.8125 20.1875 45 45 45s45-20.1875 45-45c0-19.554688-12.539062-36.226562-30-42.421875v-31.070313c34.191406 6.96875 60 37.273438 60 73.492188 0 41.355469-33.644531 75-75 75zm0 0" fill="#3587e0"/><path d="m90 480h30v-30h272v30h30v-30h90v-450h-512v450h90zm-30-180h-30v-150h30zm-30 30h30v60h392v-330h-392v60h-30v-90h452v390h-452zm60 30v-270h332v270zm0 0" fill="#3587e0"/></svg>
