<?xml version="1.0" encoding="iso-8859-1"?>
<!-- Generator: Adobe Illustrator 17.1.0, SVG Export Plug-In . SVG Version: 6.00 Build 0)  -->
<!DOCTYPE svg PUBLIC "-//W3C//DTD SVG 1.1//EN" "http://www.w3.org/Graphics/SVG/1.1/DTD/svg11.dtd">
<svg xmlns="http://www.w3.org/2000/svg" xmlns:xlink="http://www.w3.org/1999/xlink" version="1.1" id="Capa_1" x="0px" y="0px" viewBox="0 0 183.465 183.465" style="enable-background:new 0 0 183.465 183.465;" xml:space="preserve" width="512px" height="512px">
<path d="M164.403,183.465c-1.169,0-2.214-0.824-2.45-2.015l-18-90.915c-0.268-1.354,0.613-2.67,1.967-2.938  c1.352-0.267,2.669,0.612,2.938,1.967l18,90.915c0.268,1.354-0.613,2.67-1.967,2.938  C164.728,183.449,164.564,183.465,164.403,183.465z M59.719,183.465c-0.161,0-0.325-0.016-0.488-0.048  c-1.354-0.268-2.235-1.583-1.967-2.938l18-90.915c0.269-1.354,1.587-2.232,2.938-1.967c1.354,0.268,2.235,1.583,1.967,2.938  l-18,90.915C61.933,182.641,60.888,183.465,59.719,183.465z M136.898,183.465c-1.302,0-2.4-1.008-2.492-2.326l-6.333-90.915  c-0.096-1.378,0.943-2.572,2.32-2.668c1.383-0.097,2.572,0.943,2.668,2.32l6.333,90.915c0.096,1.378-0.943,2.572-2.32,2.668  C137.015,183.463,136.956,183.465,136.898,183.465z M87.225,183.465c-0.058,0-0.117-0.002-0.176-0.006  c-1.377-0.096-2.416-1.29-2.32-2.668l6.333-90.915c0.096-1.377,1.29-2.417,2.668-2.32c1.377,0.096,2.416,1.29,2.32,2.668  l-6.333,90.915C89.625,182.457,88.527,183.465,87.225,183.465z M112.061,183.465c-1.381,0-2.5-1.119-2.5-2.5V90.05  c0-1.381,1.119-2.5,2.5-2.5s2.5,1.119,2.5,2.5v90.915C114.561,182.346,113.442,183.465,112.061,183.465z M19.097,183.465  c-1.381,0-2.5-1.119-2.5-2.5V53.112c-0.09-1.766-0.951-24.553,13.479-39.84C38.39,4.466,50.054,0,64.744,0  c16.749,0,29.692,4.564,38.471,13.565c9.533,9.775,11.247,21.844,11.543,26.561c20.151,1.264,36.157,18.06,36.157,38.523  c0,1.381-1.119,2.5-2.5,2.5H76.217c-1.381,0-2.5-1.119-2.5-2.5c0-20.417,15.933-37.183,36.019-38.515  c-0.33-4.223-1.978-14.784-10.147-23.127C91.786,9.04,80.062,5,64.744,5C51.498,5,41.066,8.93,33.735,16.681  C20.514,30.659,21.581,52.683,21.593,52.903c0.002,0.046,0.004,0.095,0.004,0.142v127.92  C21.597,182.346,20.478,183.465,19.097,183.465z M78.809,76.149h67.015c-1.284-17.363-15.822-31.1-33.507-31.1  S80.093,58.786,78.809,76.149z" fill="#3587e0"/>
<g>
</g>
<g>
</g>
<g>
</g>
<g>
</g>
<g>
</g>
<g>
</g>
<g>
</g>
<g>
</g>
<g>
</g>
<g>
</g>
<g>
</g>
<g>
</g>
<g>
</g>
<g>
</g>
<g>
</g>
</svg>
