<?xml version="1.0" encoding="iso-8859-1"?>
<!-- Generator: Adobe Illustrator 16.0.0, SVG Export Plug-In . SVG Version: 6.00 Build 0)  -->
<!DOCTYPE svg PUBLIC "-//W3C//DTD SVG 1.1//EN" "http://www.w3.org/Graphics/SVG/1.1/DTD/svg11.dtd">
<svg version="1.1" id="Capa_1" xmlns="http://www.w3.org/2000/svg" xmlns:xlink="http://www.w3.org/1999/xlink" x="0px" y="0px"
	 width="50px" height="50px" viewBox="0 0 50 50" style="enable-background:new 0 0 50 50;" xml:space="preserve">
<g>
	<g>
		<path d="M0,0v50h50L0,0z M43.157,46.219v2.125h-1.313v-2.125H41.43v2.125h-1.312v-2.125h-0.414v2.125H38.4v-3.302h-0.414v3.302
			h-1.313v-2.125H36.26v2.125h-1.303v-2.125h-0.414v2.125H33.23v-2.125h-0.414v2.125h-1.305v-3.302H31.1v3.302h-1.312v-2.125h-0.414
			v2.125H28.07v-2.125h-0.414v2.125h-1.313v-2.125H25.93v2.125h-1.304v-3.302h-0.414v3.302H22.9v-2.125h-0.414v2.125h-1.313v-2.125
			h-0.405v2.125h-1.312v-2.125h-0.414v2.125H17.73v-3.302h-0.414v3.302h-1.304v-2.125h-0.414v2.125h-1.312v-2.125h-0.414v2.125
			h-1.303v-2.125h-0.414v2.125h-1.313v-3.302h-0.414v3.302H9.125v-2.125H8.712v2.125H7.399v-2.125H6.985v2.125H5.682v-2.125H5.268
			v2.125H3.956v-1.885h1.003v-0.414H3.956v-1.003H3.542v1.003H1.656v-1.312h2.125v-0.414H1.656v-1.305h2.125V42.6H1.656v-1.312
			h2.125v-0.414H1.656V39.57h3.302v-0.414H1.656v-1.313h2.125V37.43H1.656v-1.304h2.125v-0.414H1.656V34.4h2.125v-0.414H1.656
			v-1.305h3.302V32.27H1.656v-1.312h2.125v-0.414H1.656v-1.312h2.125v-0.405H1.656v-1.313h2.125V27.1H1.656v-1.312h3.302v-0.414
			H1.656V24.07h2.125v-0.414H1.656v-1.313h2.125V21.93H1.656v-1.303h2.125v-0.414H1.656V18.9h3.302v-0.414H1.656v-1.304h2.125
			v-0.414H1.656v-1.313h2.125v-0.414H1.656V13.74h2.125v-0.414H1.656v-1.313h3.302v-0.414H1.656v-1.303h2.125V9.882H1.656V8.569
			h2.125V8.156H1.656V6.843h2.125V6.438H1.656V5.125h1.13l42.088,42.088v1.13h-1.312v-2.125L43.157,46.219L43.157,46.219z
			 M45.288,47.628l0.726,0.716h-0.726V47.628z M2.372,4.712H1.656V3.987L2.372,4.712z M1.656,46.458h1.885v1.885H1.656V46.458z"/>
		<path d="M8.271,41.729h21.776L8.271,19.954V41.729z M9.917,23.949l16.134,16.134H9.917V23.949z"/>
	</g>
</g>
<g>
</g>
<g>
</g>
<g>
</g>
<g>
</g>
<g>
</g>
<g>
</g>
<g>
</g>
<g>
</g>
<g>
</g>
<g>
</g>
<g>
</g>
<g>
</g>
<g>
</g>
<g>
</g>
<g>
</g>
</svg>
